<svg xmlns="http://www.w3.org/2000/svg" width="1596" height="206"><path d="M28.8 43.2c-1.2-4.7 1.7-10.1 6.5-11.6C72.1 20.9 108.9 14 146.9 9.3c4.1-.4 8.2 2.3 9.7 6.4 3.5 9.7 5.3 14.5 8.7 24.3 1.7 4.6-.8 9.2-5.2 9.8C121.2 55.6 83.5 63.5 45.9 75c-4.6 1.6-9.2-.7-10.3-5.2-2.7-10.7-4.1-16-6.8-26.6m166.9 55.4c1.5 4.5-.4 8.9-4.3 9.5-60.5 9.8-119.5 26-175.3 51.6-4.5 2.2-9-.1-10-4.9-2.2-11.4-3.3-17.1-5.4-28.5-.9-4.4 1.5-9.5 5.5-11.4 55-24.3 113-39 172.5-46.6 3.9-.5 7.9 2.4 9.3 6.8 3.2 9.3 4.7 14 7.7 23.5m-.4 63.6c1.3 4.3-.5 8.5-4 9.4-37.2 9-73.5 20.3-109.5 33.1-5.1 2-10.7-.5-12-5.5-2.9-10.6-4.4-15.9-7.2-26.4-1.2-4.5 1.3-9.3 5.9-11 36-12.3 72.3-22 109.5-30.1 4.1-.9 8.4 2.2 9.9 6.8 3 9.5 4.4 14.2 7.4 23.7"/><path fill-rule="evenodd" d="M369 129.8c0 28.2-28.3 47.1-60.3 47.1h-58.8V21.1c19.6-2.9 34.4-4.9 51.9-4.9 32.2 0 58.1 15.2 58.1 41.8 0 15.2-7.9 25.3-22 30.8 21.7 6.3 31.1 19.6 31.1 41m-67.2-83.2c-5.1 0-10.3.5-15.3 1.2v32.1h16.2c14.4 0 21.1-6 21.1-16.4 0-9.9-7-16.9-22-16.9m27.9 81.5c0-12.7-8.1-18.1-24.1-18.1h-19.1v36.2h18.9c15.5 0 24.3-6.2 24.3-18.1m158.7-27.2v63.4c-12.9 9.9-33.7 15.2-61.9 15.2-25.2 0-46-10.4-46-33.3 0-34.5 33.3-42.9 72.7-44.1-.7-15-6.7-18.8-19.8-18.8-6.9 0-25.4 3.1-27.7 3.1-5.8 0-10.3-3.6-14.2-14.2l-2.8-8.7c14.8-5.6 29.4-9.4 45.2-9.4 34.4 0 54.5 13 54.5 46.8M453.3 146v-20.8h-7c-16.2 0-31.1 3.7-31.1 15 0 8.7 5.8 11.8 17.5 11.8 9.3 0 17-2.9 20.6-6m166.8-55v85.9h-35.9v-73.1c0-12.8-8.3-19.3-22.9-19.3-5.5 0-10.8.7-15.3 1.9v90.5h-36.1l.2-107.4c15.1-10.1 39.5-15.6 59.3-15.6 27.5 0 50.7 13.7 50.7 37.1m15.6 27c0-42.2 29.2-64.4 66.9-64.4 10.6 0 20.1 1.5 31.6 4.1-1.4 12.1-6.5 22.7-11.9 28.7-4.1-1.2-10.8-2.2-14.6-2.2-24.2 0-34 12.6-34 31.6 0 19.3 9.1 31.1 31.8 31.1 6.2 0 13.4-1.2 22.2-4.3l6.5 28.9c-13.1 5.4-26.8 7.8-37.5 7.8-36.9 0-61-22.2-61-61.3m105.5-1.7c0-38.6 25.8-62.7 62.4-62.7 38 0 62.4 25.1 62.4 62.7 0 38.9-24.6 63-62.4 63-38.1 0-62.4-24.9-62.4-63m88.7.1c0-17.4-11.8-31.4-26.3-31.4-14.6 0-26.3 14-26.3 31.4s11.7 31.5 26.3 31.5c14.5 0 26.3-14.1 26.3-31.5M886.3 22c8.4-6.2 26.6-11.6 36.1-11.6v166.5h-36.1zm56.5 94.3c0-38.6 25.8-62.7 62.4-62.7 38 0 62.4 25 62.4 62.7 0 38.8-24.6 62.9-62.4 62.9-38 0-62.4-24.8-62.4-62.9m88.7.1c0-17.4-11.8-31.5-26.3-31.5-14.6 0-26.3 14.1-26.3 31.5s11.7 31.4 26.3 31.4c14.5 0 26.3-14 26.3-31.4m237.3-25.5v85.9h-35.7v-73.1c0-12.8-8.1-19.3-22.4-19.3-6.7 0-13.2 1.5-18.5 3.6q2.9 8 2.9 17.4v71.4h-35.6v-73.1c0-12.8-8.1-19.3-22.5-19.3-5.5 0-10.8.7-15.3 2v90.4h-36.1l.2-107.3c14.4-10.2 36.8-15.7 55.7-15.7 15.1 0 28 5 37.3 13.2 12.2-7.9 29.2-13.2 43.5-13.2 26.2 0 46.5 14 46.5 37.1m144.9 19.1c0 43.9-25.8 69.2-67.9 69.2-20.6 0-40.4-3.9-52.4-9.4V22c8.4-6.3 26.8-11.6 36.2-11.6v57.1c10.3-8.9 22.7-13.7 33.9-13.7 35.6 0 50.2 24.8 50.2 56.2m-35.6 4.6c0-22.2-11.5-30.2-29.9-30.2-7.4 0-13.4 1.5-18.7 3.9v60.5c6.5 1 12.7 1.5 18.4 1.5 21.1 0 30.2-16.5 30.2-35.7m56-57.4c5-2.2 11.2-3.4 18.1-3.4 7 0 13 1.2 18 3.4v119.6h-36.1zm18-19.6c-10.2 0-18.5-8.3-18.5-18.5 0-10.3 8.3-18.6 18.5-18.6 10.3 0 18.6 8.3 18.6 18.6 0 10.2-8.3 18.5-18.6 18.5m143.9 63.2v63.5c-12.9 9.8-33.7 15.2-62 15.2-25.1 0-45.9-10.4-45.9-33.3 0-34.5 33.2-43 72.7-44.2-.7-14.9-6.7-18.8-19.8-18.8-7 0-25.4 3.2-27.8 3.2-5.7 0-10.3-3.7-14.1-14.3l-2.9-8.7c14.9-5.5 29.5-9.4 45.3-9.4 34.4 0 54.5 13.1 54.5 46.8m-35.2 45.1v-20.7h-6.9c-16.3 0-31.1 3.6-31.1 15 0 8.7 5.7 11.8 17.5 11.8 9.3 0 16.9-2.9 20.5-6.1"/></svg>